Coordinates
version=1
nRows=18
nColumns=29
inDegrees=yes

Units are S.I. units (second, meters, Newtons, ...)
Angles are in degrees.

endheader
time	pelvis_rz	pelvis_rx	pelvis_ry	pelvis_tx	pelvis_ty	pelvis_tz	r_hip_flexion	r_hip_adduction	r_hip_rotation	r_knee_angle	tp_r3	tp_tx	tp_ty	tp_tz	r_ankle_angle	r_subt_angle	r_mtp_angle	l_hip_flexion	l_hip_adduction	l_hip_rotation	l_knee_angle	ltp_r3	ltp_tx	ltp_ty	ltp_tz	l_ankle_angle	l_subt_angle	l_mtp_angle
      7.12600000	      4.83937351	      4.90367918	     81.87820397	     -0.43228439	     -0.03649059	      2.81271997	     16.24691684	    -25.24670629	     -9.45462818	     -7.64542781	      7.47623439	      0.04870927	     -0.02239275	      0.00240000	    -29.07901876	    -15.49684117	      0.00000000	    -13.73699987	      5.42667914	     -5.29506760	     -0.34635064	      0.35408212	      0.04956340	     -0.02267586	     -0.00240000	      2.59213794	    -12.79834027	      0.00000000
      7.16600000	      4.97103189	      4.83069055	     82.81744507	     -0.43180173	     -0.03556626	      2.81012068	     15.48814627	    -25.13606604	    -11.49062798	     -7.38555546	      7.27534149	      0.04874240	     -0.02240295	      0.00240000	    -29.11109985	    -15.08007704	      0.00000000	    -13.81236408	      4.80838265	     -2.80957322	     -0.37567659	      0.38936062	      0.04956029	     -0.02267474	     -0.00240000	      4.02369169	    -11.73227819	      0.00000000
      7.20600000	      4.73900122	      4.79304093	     82.99500827	     -0.42965590	     -0.03464196	      2.80743158	     15.29089379	    -25.16204567	    -11.73710767	     -7.28113591	      7.19361153	      0.04875565	     -0.02240705	      0.00240000	    -29.20142960	    -14.48038648	      0.00000000	    -13.89593005	      4.76450408	     -1.60224353	     -0.37700729	      0.39096298	      0.04956014	     -0.02267469	     -0.00240000	      4.72568636	    -11.13683803	      0.00000000
      7.24600000	      4.61838232	      5.09569494	     84.35158827	     -0.42433892	     -0.03258928	      2.80085422	     13.43256160	    -24.98677527	    -15.21901044	     -6.55812004	      6.61174093	      0.04884653	     -0.02243538	      0.00240000	    -29.17331359	    -13.10779339	      0.00000000	    -14.56579571	      3.94254825	      1.90276578	     -0.40470488	      0.42422415	      0.04955720	     -0.02267363	     -0.00240000	      6.49306195	     -9.83585721	      0.00000000
      7.28600000	      4.56096869	      4.87659571	     84.73943543	     -0.42010824	     -0.03190449	      2.79669292	     13.06695597	    -24.68599971	    -15.42860538	     -6.33551413	      6.42687412	      0.04887420	     -0.02244409	      0.00240000	    -29.22479821	    -12.81251018	      0.00000000	    -14.57099391	      3.48583306	      3.22027367	     -0.41439855	      0.43585309	      0.04955617	     -0.02267326	     -0.00240000	      7.23418091	     -9.21582429	      0.00000000
      7.32600000	      4.47033648	      4.60251590	     85.24588689	     -0.41464003	     -0.03133243	      2.79168827	     12.56634448	    -24.33931036	    -15.82129261	     -5.97544558	      6.12207634	      0.04891865	     -0.02245817	      0.00240000	    -29.23284145	    -12.79263462	      0.00000000	    -14.57218461	      2.93224106	      4.59618498	     -0.41878638	      0.44111510	      0.04955570	     -0.02267309	     -0.00240000	      7.92627481	     -8.45621069	      0.00000000
      7.36600000	      4.31335369	      4.34856433	     85.67713704	     -0.40744846	     -0.03088778	      2.78585801	     11.98572547	    -23.93958084	    -16.36593562	     -5.48806037	      5.69796742	      0.04897819	     -0.02247720	      0.00240000	    -29.22628369	    -12.90658862	      0.00000000	    -14.64858401	      2.36293491	      5.93774989	     -0.42879319	      0.45311265	      0.04955464	     -0.02267271	     -0.00240000	      8.66250322	     -7.73212270	      0.00000000
      7.40600000	      4.19816431	      4.04754715	     85.89868719	     -0.39910789	     -0.03045987	      2.77932472	     11.49602525	    -23.39554840	    -16.59347587	     -4.98525835	      5.24628672	      0.04903888	     -0.02249679	      0.00240000	    -29.19393324	    -13.07829696	      0.00000000	    -14.75976779	      1.77871942	      6.27147102	     -0.46573694	      0.49733799	      0.04955070	     -0.02267129	     -0.00240000	      8.26817010	     -7.37161264	      0.00000000
      7.44600000	      3.88496067	      3.68036543	     86.06265306	     -0.38774444	     -0.03070439	      2.77095098	     10.94339529	    -22.86573191	    -16.76296360	     -4.35712451	      4.66143453	      0.04911364	     -0.02252123	      0.00240000	    -29.03713625	    -13.54468895	      0.00000000	    -14.94706251	      1.20838054	      6.67269478	     -0.50145013	      0.54000522	      0.04954690	     -0.02266993	     -0.00240000	      7.98407426	     -6.95202509	      0.00000000
      7.48600000	      3.67434999	      3.73405622	     86.62531061	     -0.35962377	     -0.03121148	      2.75141100	      8.44138214	    -21.00172836	    -17.17730890	     -2.83934584	      3.15079068	      0.04928946	     -0.02258003	      0.00240000	    -28.35925411	    -16.11406205	      0.00000000	    -16.33906859	     -0.77467390	      7.52619564	     -0.70767407	      0.78470607	      0.04952484	     -0.02266203	     -0.00240000	      7.59177491	     -5.72687884	      0.00000000
      7.52600000	      3.66087956	      3.59627386	     86.63727222	     -0.35962571	     -0.03137084	      2.75129416	      8.58574111	    -21.00953396	    -17.11584128	     -2.85416721	      3.16621295	      0.04928778	     -0.02257946	      0.00240000	    -28.36991843	    -16.16778776	      0.00000000	    -16.18120760	     -0.77826350	      6.90435108	     -0.73459378	      0.81643991	      0.04952195	     -0.02266100	     -0.00240000	      7.79839634	     -4.88545070	      0.00000000
      7.56600000	      3.83265421	      2.77008050	     86.99548412	     -0.33667678	     -0.03314277	      2.73530747	      7.61502758	    -19.14442494	    -17.65574166	     -1.95491124	      2.20468023	      0.04938876	     -0.02261414	      0.00240000	    -26.63840422	    -17.49335197	      0.00000000	    -15.57166506	     -2.96339909	     -9.16115599	     -2.63949937	      2.94133249	      0.04931210	     -0.02258775	     -0.00240000	     10.72756082	     14.94048338	      0.00000000
      7.60600000	      4.32945749	      1.87898184	     86.68470514	     -0.28421284	     -0.03751575	      2.70043662	      5.79434341	    -15.17678278	    -18.49066882	     -1.65148483	      1.86860476	      0.04942229	     -0.02262582	      0.00240000	    -21.54035433	    -18.42450062	      0.00000000	    -15.70599603	     -6.99637637	    -10.94615996	     -5.29423125	      5.52556672	      0.04900168	     -0.02248475	     -0.00240000	     12.60358562	     17.50948570	      0.00000000
      7.64600000	      4.80244942	      1.32460491	     86.31142175	     -0.25429267	     -0.03991211	      2.68080828	      5.03409229	    -12.76136947	    -18.64870338	     -1.78840445	      2.02101102	      0.04940719	     -0.02262055	      0.00240000	    -18.60255824	    -18.82432548	      0.00000000	    -15.58045346	     -9.33459325	    -10.95873910	     -6.94421814	      6.92596108	      0.04879819	     -0.02242026	     -0.00240000	     12.97155258	     17.39639442	      0.00000000
      7.68600000	      5.02682447	      1.00614339	     86.00702179	     -0.22401156	     -0.04203189	      2.66150970	      4.20830613	    -10.68090051	    -18.83499666	     -2.31269107	      2.59337838	      0.04934887	     -0.02260036	      0.00240000	    -15.19813387	    -18.79877356	      0.00000000	    -15.11470195	    -11.40139047	    -10.87207988	     -9.28689211	      8.66510917	      0.04849540	     -0.02232815	     -0.00240000	     13.93851558	     17.62230791	      0.00000000
      7.72600000	      5.15594984	      0.40974866	     85.50302482	     -0.19382299	     -0.04436402	      2.64208837	      3.76186711	     -8.71758830	    -18.88514606	     -2.85621704	      3.16834855	      0.04928754	     -0.02257938	      0.00240000	    -12.50087960	    -18.82497534	      0.00000000	    -14.03317150	    -13.16381830	     -9.39975860	    -11.99699525	     10.34445333	      0.04812477	     -0.02222091	     -0.00240000	     13.53903140	     16.28809073	      0.00000000
      7.76600000	      5.15035667	     -0.04367707	     85.08564354	     -0.16496442	     -0.04650182	      2.62312828	      3.16073990	     -7.02274069	    -18.88917678	     -3.35260566	      3.67737126	      0.04923077	     -0.02256018	      0.00240000	    -10.38601067	    -18.83338748	      0.00000000	    -12.76291306	    -14.32456057	     -5.74156205	    -14.91281923	     11.79873811	      0.04770134	     -0.02210474	     -0.00240000	      9.80740855	     10.01059691	      0.00000000
      7.80600000	      4.70151997	     -0.34887688	     84.72512540	     -0.13748467	     -0.04810078	      2.60462189	      2.40095936	     -5.91104991	    -18.86063649	     -3.71322694	      4.03766134	      0.04918907	     -0.02254622	      0.00240000	     -8.80174820	    -18.82714995	      0.00000000	    -10.83560730	    -14.34543758	     -0.53738668	    -17.46995914	     12.81354249	      0.04730859	     -0.02200216	     -0.00240000	      9.45873470	      5.18556653	      0.00000000
